static_grf.mot
version=1
nRows=10
nColumns 19
inDegrees=yes
endheader
time	1_ground_force_vx	1_ground_force_vy	1_ground_force_vz	1_ground_force_px	1_ground_force_py	1_ground_force_pz	1_ground_torque_x	1_ground_torque_y	1_ground_torque_z	2_ground_force_vx	2_ground_force_vy	2_ground_force_vz	2_ground_force_px	2_ground_force_py	2_ground_force_pz	2_ground_torque_x	2_ground_torque_y	2_ground_torque_z
            0.498500	           -1.425267	          412.562234	          -24.962273	           -0.273073	            0.006226	           -0.407698	           -0.007010	            2.029101	           -0.122772	           -1.750431	          436.153471	           27.695606	           -0.277954	            0.005437	           -0.685689	            0.006541	           -1.629854	           -0.103495
            0.499000	           -1.425169	          412.021468	          -24.964592	           -0.273122	            0.006226	           -0.407717	           -0.007087	            2.048867	           -0.124142	           -1.702293	          435.785693	           27.600416	           -0.277815	            0.005437	           -0.685392	            0.006510	           -1.666643	           -0.105557
            0.499500	           -1.241551	          411.300244	          -24.922283	           -0.272987	            0.006226	           -0.407795	           -0.006225	            2.062147	           -0.124954	           -1.797945	          436.337442	           27.696283	           -0.277843	            0.005437	           -0.685493	            0.006870	           -1.667237	           -0.105827
            0.500000	           -1.607954	          411.299583	          -24.783805	           -0.273136	            0.006227	           -0.408058	           -0.007654	            1.957932	           -0.117980	           -1.747773	          435.416908	           27.692978	           -0.277992	            0.005436	           -0.685352	            0.006394	           -1.592999	           -0.101316
            0.500500	           -1.699786	          411.479997	          -24.828660	           -0.273358	            0.006227	           -0.407859	           -0.008025	            1.942697	           -0.117222	           -1.888302	          435.416233	           27.739966	           -0.278077	            0.005435	           -0.685265	            0.006960	           -1.604841	           -0.102243
            0.501000	           -1.608313	          412.021039	          -24.872425	           -0.273194	            0.006227	           -0.407891	           -0.007844	            2.009616	           -0.121314	           -2.032880	          436.520905	           27.650112	           -0.277838	            0.005438	           -0.685639	            0.007284	           -1.564192	           -0.099079
            0.501500	           -1.425429	          412.202096	          -25.055531	           -0.273290	            0.006226	           -0.407659	           -0.006986	            2.020127	           -0.122793	           -1.796616	          435.969161	           27.694969	           -0.277852	            0.005436	           -0.685325	            0.006443	           -1.563485	           -0.099320
            0.502000	           -1.333597	          412.021682	          -25.010675	           -0.273067	            0.006226	           -0.407811	           -0.006618	            2.044621	           -0.124113	           -1.702334	          435.786028	           27.506560	           -0.278035	            0.005436	           -0.685392	            0.006405	           -1.639744	           -0.103500
            0.502500	           -1.424744	          410.939481	          -24.877518	           -0.273276	            0.006227	           -0.408017	           -0.007040	            2.030435	           -0.122919	           -1.658060	          436.522091	           27.696880	           -0.278007	            0.005437	           -0.685728	            0.006033	           -1.588418	           -0.100784
            0.503000	           -1.425624	          412.022254	          -25.148015	           -0.273120	            0.006227	           -0.407918	           -0.007081	            2.046600	           -0.124915	           -1.745614	          434.863086	           28.066432	           -0.277950	            0.005435	           -0.684991	            0.006686	           -1.665682	           -0.107505
